<svg id="Layer_1" data-name="Layer 1" xmlns="http://www.w3.org/2000/svg" viewBox="0 0 1080 1080"><defs><style>.cls-1{fill:#e6e3f3;}.cls-2{fill:#77728c;}.cls-3{fill:#b5add6;}</style></defs><title>Add money option</title><path class="cls-1" d="M782.32,311.35H380l230.53,71.8H756.19v1.32H614.71l12.65,3.94H756.19v15.76H678l5.76,1.8.28.09a35.44,35.44,0,0,1,23.4,33v62.31h48.78v1.31H707.41v3.94h48.78v15.77H707.41v134h74.91c18.11,0,32.83-14.26,32.83-31.79V343.15C815.15,325.62,800.43,311.35,782.32,311.35Z"/><path class="cls-1" d="M334.92,585.52a89.65,89.65,0,1,0,89.65,89.64A89.75,89.75,0,0,0,334.92,585.52Z"/><polygon class="cls-2" points="345.64 664.44 345.64 622.01 324.2 622.01 324.2 664.44 281.77 664.44 281.77 685.89 324.2 685.89 324.2 728.32 345.64 728.32 345.64 685.89 388.07 685.89 388.07 664.44 345.64 664.44"/><path class="cls-2" d="M335,566.41v-261a4.14,4.14,0,0,1,.88-2.55.86.86,0,0,0,.07-.1l.11-.13a5.87,5.87,0,0,1,5-2.81h441.2A45.41,45.41,0,0,1,800,303.38a38,38,0,0,0-29.08-13.52H330.36a12,12,0,0,0-12,12V567.65A109.08,109.08,0,1,0,335,566.41ZM334.81,765a89.65,89.65,0,1,1,89.64-89.64A89.75,89.75,0,0,1,334.81,765Z"/><path class="cls-3" d="M781.41,299.73H340.81a5.88,5.88,0,0,0-5,2.8l-.11.14s-.05.06-.07.1a4.11,4.11,0,0,0-.88,2.54V566a108.83,108.83,0,0,1,99.92,151.63l229.84,70.49c19.11,7,42.18-7.15,42.18-27.51V655.77l-.11-216.7a35.39,35.39,0,0,0-23.37-33L683,406,379.61,311.53h401.8c18.08,0,32.78,14.24,32.78,31.75v281c0,17.51-14.7,31.75-32.78,31.75L727,655.85l-12.66-.08v12.1h67.1c24.59,0,44.59-19.54,44.59-43.55v-281C826,319.26,806,299.73,781.41,299.73Z"/></svg>