<?xml version="1.0" encoding="UTF-8"?>
<svg xmlns="http://www.w3.org/2000/svg" xmlns:xlink="http://www.w3.org/1999/xlink" width="122.25pt" height="100.499998pt" viewBox="0 0 122.25 100.499998" version="1.2">
<defs>
<clipPath id="clip1">
  <path d="M 44 0.0585938 L 53 0.0585938 L 53 28 L 44 28 Z M 44 0.0585938 "/>
</clipPath>
<clipPath id="clip2">
  <path d="M 52.878906 0.0585938 L 44.339844 3.84375 C 45.304688 4.15625 46.066406 4.476562 46.851562 4.671875 C 47.527344 4.851562 47.667969 5.035156 47.363281 5.761719 C 45.390625 10.160156 44.65625 14.714844 46.03125 19.445312 C 47.078125 23.121094 49.441406 25.796875 52.671875 27.734375 C 51.34375 26.398438 50.207031 24.917969 49.261719 23.285156 C 46.320312 17.894531 46.820312 12.703125 50.144531 7.664062 C 50.476562 7.152344 50.65625 7.210938 50.945312 7.664062 C 51.355469 8.335938 51.804688 8.980469 52.386719 9.863281 C 52.554688 6.496094 52.714844 3.347656 52.878906 0.0585938 Z M 52.878906 0.0585938 "/>
</clipPath>
<linearGradient id="linear0" gradientUnits="userSpaceOnUse" x1="1060.297253" y1="-2920.4299" x2="1115.718258" y2="-2920.4299" gradientTransform="matrix(0.0519553,-0.50986,0.507963,0.0521493,1475.660488,720.937571)">
<stop offset="0" style="stop-color:rgb(100%,100%,100%);stop-opacity:1;"/>
<stop offset="0.125" style="stop-color:rgb(100%,100%,100%);stop-opacity:1;"/>
<stop offset="0.1875" style="stop-color:rgb(100%,100%,100%);stop-opacity:1;"/>
<stop offset="0.191406" style="stop-color:rgb(100%,99.775696%,99.742126%);stop-opacity:1;"/>
<stop offset="0.195312" style="stop-color:rgb(100%,99.552917%,99.484253%);stop-opacity:1;"/>
<stop offset="0.199219" style="stop-color:rgb(100%,99.27063%,99.157715%);stop-opacity:1;"/>
<stop offset="0.203125" style="stop-color:rgb(100%,98.988342%,98.831177%);stop-opacity:1;"/>
<stop offset="0.207031" style="stop-color:rgb(100%,98.706055%,98.504639%);stop-opacity:1;"/>
<stop offset="0.210937" style="stop-color:rgb(100%,98.423767%,98.178101%);stop-opacity:1;"/>
<stop offset="0.214844" style="stop-color:rgb(100%,98.141479%,97.851562%);stop-opacity:1;"/>
<stop offset="0.21875" style="stop-color:rgb(100%,97.859192%,97.52655%);stop-opacity:1;"/>
<stop offset="0.222656" style="stop-color:rgb(100%,97.576904%,97.200012%);stop-opacity:1;"/>
<stop offset="0.226562" style="stop-color:rgb(100%,97.294617%,96.873474%);stop-opacity:1;"/>
<stop offset="0.230469" style="stop-color:rgb(100%,97.012329%,96.546936%);stop-opacity:1;"/>
<stop offset="0.234375" style="stop-color:rgb(100%,96.730042%,96.220398%);stop-opacity:1;"/>
<stop offset="0.238281" style="stop-color:rgb(100%,96.447754%,95.89386%);stop-opacity:1;"/>
<stop offset="0.242187" style="stop-color:rgb(100%,96.165466%,95.567322%);stop-opacity:1;"/>
<stop offset="0.246094" style="stop-color:rgb(100%,95.883179%,95.240784%);stop-opacity:1;"/>
<stop offset="0.25" style="stop-color:rgb(100%,95.600891%,94.915771%);stop-opacity:1;"/>
<stop offset="0.253906" style="stop-color:rgb(100%,95.318604%,94.589233%);stop-opacity:1;"/>
<stop offset="0.257812" style="stop-color:rgb(100%,95.036316%,94.262695%);stop-opacity:1;"/>
<stop offset="0.261719" style="stop-color:rgb(100%,94.752502%,93.936157%);stop-opacity:1;"/>
<stop offset="0.265625" style="stop-color:rgb(100%,94.470215%,93.609619%);stop-opacity:1;"/>
<stop offset="0.269531" style="stop-color:rgb(100%,94.187927%,93.283081%);stop-opacity:1;"/>
<stop offset="0.273438" style="stop-color:rgb(100%,93.90564%,92.956543%);stop-opacity:1;"/>
<stop offset="0.277344" style="stop-color:rgb(100%,93.623352%,92.630005%);stop-opacity:1;"/>
<stop offset="0.28125" style="stop-color:rgb(100%,93.341064%,92.304993%);stop-opacity:1;"/>
<stop offset="0.285156" style="stop-color:rgb(100%,93.058777%,91.978455%);stop-opacity:1;"/>
<stop offset="0.289062" style="stop-color:rgb(100%,92.776489%,91.651917%);stop-opacity:1;"/>
<stop offset="0.292969" style="stop-color:rgb(100%,92.494202%,91.325378%);stop-opacity:1;"/>
<stop offset="0.296875" style="stop-color:rgb(100%,92.211914%,90.99884%);stop-opacity:1;"/>
<stop offset="0.300781" style="stop-color:rgb(100%,91.929626%,90.672302%);stop-opacity:1;"/>
<stop offset="0.304687" style="stop-color:rgb(100%,91.647339%,90.345764%);stop-opacity:1;"/>
<stop offset="0.308594" style="stop-color:rgb(100%,91.365051%,90.019226%);stop-opacity:1;"/>
<stop offset="0.3125" style="stop-color:rgb(100%,91.082764%,89.694214%);stop-opacity:1;"/>
<stop offset="0.316406" style="stop-color:rgb(100%,90.800476%,89.367676%);stop-opacity:1;"/>
<stop offset="0.320312" style="stop-color:rgb(100%,90.518188%,89.041138%);stop-opacity:1;"/>
<stop offset="0.324219" style="stop-color:rgb(100%,90.235901%,88.7146%);stop-opacity:1;"/>
<stop offset="0.328125" style="stop-color:rgb(100%,89.953613%,88.388062%);stop-opacity:1;"/>
<stop offset="0.332031" style="stop-color:rgb(100%,89.6698%,88.061523%);stop-opacity:1;"/>
<stop offset="0.335938" style="stop-color:rgb(100%,89.387512%,87.734985%);stop-opacity:1;"/>
<stop offset="0.339844" style="stop-color:rgb(100%,89.105225%,87.408447%);stop-opacity:1;"/>
<stop offset="0.34375" style="stop-color:rgb(100%,88.822937%,87.083435%);stop-opacity:1;"/>
<stop offset="0.347656" style="stop-color:rgb(100%,88.540649%,86.756897%);stop-opacity:1;"/>
<stop offset="0.351562" style="stop-color:rgb(100%,88.258362%,86.430359%);stop-opacity:1;"/>
<stop offset="0.355469" style="stop-color:rgb(100%,87.968445%,86.094666%);stop-opacity:1;"/>
<stop offset="0.359375" style="stop-color:rgb(100%,87.680054%,85.760498%);stop-opacity:1;"/>
<stop offset="0.363281" style="stop-color:rgb(100%,87.361145%,85.386658%);stop-opacity:1;"/>
<stop offset="0.367188" style="stop-color:rgb(100%,87.042236%,85.014343%);stop-opacity:1;"/>
<stop offset="0.371094" style="stop-color:rgb(100%,86.723328%,84.640503%);stop-opacity:1;"/>
<stop offset="0.375" style="stop-color:rgb(100%,86.404419%,84.268188%);stop-opacity:1;"/>
<stop offset="0.378906" style="stop-color:rgb(100%,86.083984%,83.894348%);stop-opacity:1;"/>
<stop offset="0.382812" style="stop-color:rgb(100%,85.765076%,83.522034%);stop-opacity:1;"/>
<stop offset="0.386719" style="stop-color:rgb(100%,85.446167%,83.148193%);stop-opacity:1;"/>
<stop offset="0.390625" style="stop-color:rgb(100%,85.127258%,82.775879%);stop-opacity:1;"/>
<stop offset="0.394531" style="stop-color:rgb(100%,84.80835%,82.402039%);stop-opacity:1;"/>
<stop offset="0.398437" style="stop-color:rgb(100%,84.489441%,82.029724%);stop-opacity:1;"/>
<stop offset="0.402344" style="stop-color:rgb(100%,84.170532%,81.655884%);stop-opacity:1;"/>
<stop offset="0.40625" style="stop-color:rgb(100%,83.851624%,81.283569%);stop-opacity:1;"/>
<stop offset="0.410156" style="stop-color:rgb(100%,83.531189%,80.909729%);stop-opacity:1;"/>
<stop offset="0.414062" style="stop-color:rgb(100%,83.21228%,80.537415%);stop-opacity:1;"/>
<stop offset="0.417969" style="stop-color:rgb(100%,82.893372%,80.1651%);stop-opacity:1;"/>
<stop offset="0.421875" style="stop-color:rgb(100%,82.574463%,79.792786%);stop-opacity:1;"/>
<stop offset="0.425781" style="stop-color:rgb(100%,82.255554%,79.418945%);stop-opacity:1;"/>
<stop offset="0.429688" style="stop-color:rgb(100%,81.936646%,79.046631%);stop-opacity:1;"/>
<stop offset="0.433594" style="stop-color:rgb(100%,81.617737%,78.672791%);stop-opacity:1;"/>
<stop offset="0.4375" style="stop-color:rgb(100%,81.298828%,78.300476%);stop-opacity:1;"/>
<stop offset="0.441406" style="stop-color:rgb(100%,80.978394%,77.926636%);stop-opacity:1;"/>
<stop offset="0.445312" style="stop-color:rgb(100%,80.659485%,77.554321%);stop-opacity:1;"/>
<stop offset="0.449219" style="stop-color:rgb(100%,80.340576%,77.180481%);stop-opacity:1;"/>
<stop offset="0.453125" style="stop-color:rgb(100%,80.021667%,76.808167%);stop-opacity:1;"/>
<stop offset="0.457031" style="stop-color:rgb(100%,79.702759%,76.434326%);stop-opacity:1;"/>
<stop offset="0.460938" style="stop-color:rgb(100%,79.38385%,76.062012%);stop-opacity:1;"/>
<stop offset="0.464844" style="stop-color:rgb(100%,79.063416%,75.688171%);stop-opacity:1;"/>
<stop offset="0.46875" style="stop-color:rgb(100%,78.744507%,75.315857%);stop-opacity:1;"/>
<stop offset="0.472656" style="stop-color:rgb(100%,78.425598%,74.942017%);stop-opacity:1;"/>
<stop offset="0.476562" style="stop-color:rgb(100%,78.106689%,74.569702%);stop-opacity:1;"/>
<stop offset="0.480469" style="stop-color:rgb(100%,77.787781%,74.195862%);stop-opacity:1;"/>
<stop offset="0.484375" style="stop-color:rgb(100%,77.468872%,73.823547%);stop-opacity:1;"/>
<stop offset="0.488281" style="stop-color:rgb(100%,77.149963%,73.451233%);stop-opacity:1;"/>
<stop offset="0.492187" style="stop-color:rgb(100%,76.831055%,73.078918%);stop-opacity:1;"/>
<stop offset="0.496094" style="stop-color:rgb(100%,76.51062%,72.705078%);stop-opacity:1;"/>
<stop offset="0.5" style="stop-color:rgb(100%,76.191711%,72.332764%);stop-opacity:1;"/>
<stop offset="0.503906" style="stop-color:rgb(100%,75.872803%,71.958923%);stop-opacity:1;"/>
<stop offset="0.507812" style="stop-color:rgb(100%,75.553894%,71.586609%);stop-opacity:1;"/>
<stop offset="0.511719" style="stop-color:rgb(100%,75.234985%,71.212769%);stop-opacity:1;"/>
<stop offset="0.515625" style="stop-color:rgb(100%,74.916077%,70.840454%);stop-opacity:1;"/>
<stop offset="0.519531" style="stop-color:rgb(100%,74.597168%,70.466614%);stop-opacity:1;"/>
<stop offset="0.523438" style="stop-color:rgb(100%,74.278259%,70.094299%);stop-opacity:1;"/>
<stop offset="0.527344" style="stop-color:rgb(100%,73.957825%,69.720459%);stop-opacity:1;"/>
<stop offset="0.53125" style="stop-color:rgb(100%,73.638916%,69.348145%);stop-opacity:1;"/>
<stop offset="0.535156" style="stop-color:rgb(100%,73.320007%,68.974304%);stop-opacity:1;"/>
<stop offset="0.539062" style="stop-color:rgb(100%,73.001099%,68.60199%);stop-opacity:1;"/>
<stop offset="0.542969" style="stop-color:rgb(100%,72.68219%,68.228149%);stop-opacity:1;"/>
<stop offset="0.546875" style="stop-color:rgb(100%,72.363281%,67.855835%);stop-opacity:1;"/>
<stop offset="0.550781" style="stop-color:rgb(100%,72.044373%,67.481995%);stop-opacity:1;"/>
<stop offset="0.554688" style="stop-color:rgb(100%,71.725464%,67.10968%);stop-opacity:1;"/>
<stop offset="0.558594" style="stop-color:rgb(100%,71.405029%,66.737366%);stop-opacity:1;"/>
<stop offset="0.5625" style="stop-color:rgb(100%,71.086121%,66.365051%);stop-opacity:1;"/>
<stop offset="0.566406" style="stop-color:rgb(100%,70.767212%,65.991211%);stop-opacity:1;"/>
<stop offset="0.570312" style="stop-color:rgb(100%,70.448303%,65.618896%);stop-opacity:1;"/>
<stop offset="0.574219" style="stop-color:rgb(100%,70.129395%,65.245056%);stop-opacity:1;"/>
<stop offset="0.578125" style="stop-color:rgb(100%,69.810486%,64.872742%);stop-opacity:1;"/>
<stop offset="0.582031" style="stop-color:rgb(100%,69.491577%,64.498901%);stop-opacity:1;"/>
<stop offset="0.585938" style="stop-color:rgb(100%,69.172668%,64.126587%);stop-opacity:1;"/>
<stop offset="0.589844" style="stop-color:rgb(100%,68.852234%,63.752747%);stop-opacity:1;"/>
<stop offset="0.59375" style="stop-color:rgb(100%,68.533325%,63.380432%);stop-opacity:1;"/>
<stop offset="0.597656" style="stop-color:rgb(100%,68.214417%,63.006592%);stop-opacity:1;"/>
<stop offset="0.601562" style="stop-color:rgb(100%,67.895508%,62.634277%);stop-opacity:1;"/>
<stop offset="0.605469" style="stop-color:rgb(100%,67.576599%,62.260437%);stop-opacity:1;"/>
<stop offset="0.609375" style="stop-color:rgb(100%,67.25769%,61.888123%);stop-opacity:1;"/>
<stop offset="0.613281" style="stop-color:rgb(100%,66.938782%,61.514282%);stop-opacity:1;"/>
<stop offset="0.617188" style="stop-color:rgb(100%,66.619873%,61.141968%);stop-opacity:1;"/>
<stop offset="0.621094" style="stop-color:rgb(100%,66.299438%,60.768127%);stop-opacity:1;"/>
<stop offset="0.625" style="stop-color:rgb(100%,65.98053%,60.395813%);stop-opacity:1;"/>
<stop offset="0.628906" style="stop-color:rgb(100%,65.661621%,60.023499%);stop-opacity:1;"/>
<stop offset="0.632812" style="stop-color:rgb(100%,65.342712%,59.651184%);stop-opacity:1;"/>
<stop offset="0.636719" style="stop-color:rgb(100%,65.023804%,59.277344%);stop-opacity:1;"/>
<stop offset="0.640625" style="stop-color:rgb(100%,64.704895%,58.905029%);stop-opacity:1;"/>
<stop offset="0.644531" style="stop-color:rgb(100%,64.385986%,58.531189%);stop-opacity:1;"/>
<stop offset="0.648438" style="stop-color:rgb(100%,64.067078%,58.158875%);stop-opacity:1;"/>
<stop offset="0.652344" style="stop-color:rgb(100%,63.746643%,57.785034%);stop-opacity:1;"/>
<stop offset="0.65625" style="stop-color:rgb(100%,63.427734%,57.41272%);stop-opacity:1;"/>
<stop offset="0.660156" style="stop-color:rgb(100%,63.108826%,57.038879%);stop-opacity:1;"/>
<stop offset="0.664062" style="stop-color:rgb(100%,62.789917%,56.666565%);stop-opacity:1;"/>
<stop offset="0.667969" style="stop-color:rgb(100%,62.471008%,56.292725%);stop-opacity:1;"/>
<stop offset="0.671875" style="stop-color:rgb(100%,62.1521%,55.92041%);stop-opacity:1;"/>
<stop offset="0.675781" style="stop-color:rgb(100%,61.833191%,55.54657%);stop-opacity:1;"/>
<stop offset="0.679688" style="stop-color:rgb(100%,61.514282%,55.174255%);stop-opacity:1;"/>
<stop offset="0.683594" style="stop-color:rgb(100%,61.193848%,54.800415%);stop-opacity:1;"/>
<stop offset="0.6875" style="stop-color:rgb(100%,60.874939%,54.428101%);stop-opacity:1;"/>
<stop offset="0.691406" style="stop-color:rgb(100%,60.55603%,54.05426%);stop-opacity:1;"/>
<stop offset="0.695312" style="stop-color:rgb(100%,60.237122%,53.681946%);stop-opacity:1;"/>
<stop offset="0.699219" style="stop-color:rgb(100%,59.918213%,53.309631%);stop-opacity:1;"/>
<stop offset="0.703125" style="stop-color:rgb(100%,59.599304%,52.937317%);stop-opacity:1;"/>
<stop offset="0.707031" style="stop-color:rgb(100%,59.27887%,52.563477%);stop-opacity:1;"/>
<stop offset="0.710938" style="stop-color:rgb(100%,58.959961%,52.191162%);stop-opacity:1;"/>
<stop offset="0.714844" style="stop-color:rgb(100%,58.641052%,51.817322%);stop-opacity:1;"/>
<stop offset="0.71875" style="stop-color:rgb(100%,58.322144%,51.445007%);stop-opacity:1;"/>
<stop offset="0.722656" style="stop-color:rgb(100%,58.003235%,51.071167%);stop-opacity:1;"/>
<stop offset="0.726562" style="stop-color:rgb(100%,57.684326%,50.698853%);stop-opacity:1;"/>
<stop offset="0.730469" style="stop-color:rgb(100%,57.351685%,50.312805%);stop-opacity:1;"/>
<stop offset="0.734375" style="stop-color:rgb(100%,57.019043%,49.928284%);stop-opacity:1;"/>
<stop offset="0.738281" style="stop-color:rgb(100%,56.684875%,49.54071%);stop-opacity:1;"/>
<stop offset="0.742188" style="stop-color:rgb(100%,56.350708%,49.153137%);stop-opacity:1;"/>
<stop offset="0.746094" style="stop-color:rgb(100%,56.016541%,48.765564%);stop-opacity:1;"/>
<stop offset="0.75" style="stop-color:rgb(100%,55.682373%,48.377991%);stop-opacity:1;"/>
<stop offset="0.753906" style="stop-color:rgb(100%,55.348206%,47.990417%);stop-opacity:1;"/>
<stop offset="0.757812" style="stop-color:rgb(100%,55.014038%,47.602844%);stop-opacity:1;"/>
<stop offset="0.761719" style="stop-color:rgb(100%,54.678345%,47.215271%);stop-opacity:1;"/>
<stop offset="0.765625" style="stop-color:rgb(100%,54.344177%,46.829224%);stop-opacity:1;"/>
<stop offset="0.769531" style="stop-color:rgb(100%,54.01001%,46.44165%);stop-opacity:1;"/>
<stop offset="0.773438" style="stop-color:rgb(100%,53.675842%,46.054077%);stop-opacity:1;"/>
<stop offset="0.777344" style="stop-color:rgb(100%,53.341675%,45.666504%);stop-opacity:1;"/>
<stop offset="0.78125" style="stop-color:rgb(100%,53.007507%,45.278931%);stop-opacity:1;"/>
<stop offset="0.785156" style="stop-color:rgb(100%,52.67334%,44.891357%);stop-opacity:1;"/>
<stop offset="0.789062" style="stop-color:rgb(100%,52.339172%,44.50531%);stop-opacity:1;"/>
<stop offset="0.792969" style="stop-color:rgb(100%,52.005005%,44.117737%);stop-opacity:1;"/>
<stop offset="0.796875" style="stop-color:rgb(100%,51.670837%,43.730164%);stop-opacity:1;"/>
<stop offset="0.800781" style="stop-color:rgb(100%,51.335144%,43.34259%);stop-opacity:1;"/>
<stop offset="0.804688" style="stop-color:rgb(100%,51.000977%,42.955017%);stop-opacity:1;"/>
<stop offset="0.808594" style="stop-color:rgb(100%,50.666809%,42.567444%);stop-opacity:1;"/>
<stop offset="0.8125" style="stop-color:rgb(100%,50.332642%,42.179871%);stop-opacity:1;"/>
<stop offset="0.816406" style="stop-color:rgb(100%,49.998474%,41.792297%);stop-opacity:1;"/>
<stop offset="0.820312" style="stop-color:rgb(100%,49.664307%,41.40625%);stop-opacity:1;"/>
<stop offset="0.824219" style="stop-color:rgb(100%,49.330139%,41.018677%);stop-opacity:1;"/>
<stop offset="0.828125" style="stop-color:rgb(100%,48.995972%,40.631104%);stop-opacity:1;"/>
<stop offset="0.832031" style="stop-color:rgb(100%,48.660278%,40.24353%);stop-opacity:1;"/>
<stop offset="0.835938" style="stop-color:rgb(100%,48.326111%,39.855957%);stop-opacity:1;"/>
<stop offset="0.839844" style="stop-color:rgb(100%,47.991943%,39.468384%);stop-opacity:1;"/>
<stop offset="0.84375" style="stop-color:rgb(100%,47.657776%,39.080811%);stop-opacity:1;"/>
<stop offset="0.847656" style="stop-color:rgb(100%,47.323608%,38.693237%);stop-opacity:1;"/>
<stop offset="0.851562" style="stop-color:rgb(100%,46.989441%,38.30719%);stop-opacity:1;"/>
<stop offset="0.855469" style="stop-color:rgb(100%,46.655273%,37.919617%);stop-opacity:1;"/>
<stop offset="0.859375" style="stop-color:rgb(100%,46.321106%,37.532043%);stop-opacity:1;"/>
<stop offset="0.863281" style="stop-color:rgb(100%,45.985413%,37.14447%);stop-opacity:1;"/>
<stop offset="0.867187" style="stop-color:rgb(100%,45.651245%,36.756897%);stop-opacity:1;"/>
<stop offset="0.871094" style="stop-color:rgb(100%,45.317078%,36.369324%);stop-opacity:1;"/>
<stop offset="0.875" style="stop-color:rgb(100%,44.98291%,35.98175%);stop-opacity:1;"/>
<stop offset="0.878906" style="stop-color:rgb(100%,44.648743%,35.594177%);stop-opacity:1;"/>
<stop offset="0.882812" style="stop-color:rgb(100%,44.314575%,35.20813%);stop-opacity:1;"/>
<stop offset="0.886719" style="stop-color:rgb(100%,43.980408%,34.820557%);stop-opacity:1;"/>
<stop offset="0.890625" style="stop-color:rgb(100%,43.64624%,34.432983%);stop-opacity:1;"/>
<stop offset="0.894531" style="stop-color:rgb(100%,43.310547%,34.04541%);stop-opacity:1;"/>
<stop offset="0.898438" style="stop-color:rgb(100%,42.976379%,33.657837%);stop-opacity:1;"/>
<stop offset="0.902344" style="stop-color:rgb(100%,42.642212%,33.270264%);stop-opacity:1;"/>
<stop offset="0.90625" style="stop-color:rgb(100%,42.308044%,32.88269%);stop-opacity:1;"/>
<stop offset="0.910156" style="stop-color:rgb(100%,41.973877%,32.495117%);stop-opacity:1;"/>
<stop offset="0.914062" style="stop-color:rgb(100%,41.639709%,32.10907%);stop-opacity:1;"/>
<stop offset="0.917969" style="stop-color:rgb(100%,41.305542%,31.721497%);stop-opacity:1;"/>
<stop offset="0.921875" style="stop-color:rgb(100%,40.971375%,31.333923%);stop-opacity:1;"/>
<stop offset="0.925781" style="stop-color:rgb(100%,40.637207%,30.94635%);stop-opacity:1;"/>
<stop offset="0.929688" style="stop-color:rgb(100%,40.30304%,30.558777%);stop-opacity:1;"/>
<stop offset="0.933594" style="stop-color:rgb(100%,39.967346%,30.171204%);stop-opacity:1;"/>
<stop offset="0.9375" style="stop-color:rgb(100%,39.633179%,29.785156%);stop-opacity:1;"/>
<stop offset="0.941406" style="stop-color:rgb(100%,39.299011%,29.397583%);stop-opacity:1;"/>
<stop offset="0.945312" style="stop-color:rgb(100%,38.964844%,29.01001%);stop-opacity:1;"/>
<stop offset="0.949219" style="stop-color:rgb(100%,38.630676%,28.622437%);stop-opacity:1;"/>
<stop offset="0.953125" style="stop-color:rgb(100%,38.296509%,28.234863%);stop-opacity:1;"/>
<stop offset="0.957031" style="stop-color:rgb(100%,37.962341%,27.84729%);stop-opacity:1;"/>
<stop offset="0.960937" style="stop-color:rgb(100%,37.628174%,27.459717%);stop-opacity:1;"/>
<stop offset="0.964844" style="stop-color:rgb(100%,37.29248%,27.072144%);stop-opacity:1;"/>
<stop offset="0.96875" style="stop-color:rgb(100%,36.958313%,26.686096%);stop-opacity:1;"/>
<stop offset="0.972656" style="stop-color:rgb(100%,36.624146%,26.298523%);stop-opacity:1;"/>
<stop offset="0.976562" style="stop-color:rgb(100%,36.289978%,25.91095%);stop-opacity:1;"/>
<stop offset="0.980469" style="stop-color:rgb(100%,35.955811%,25.523376%);stop-opacity:1;"/>
<stop offset="0.984375" style="stop-color:rgb(100%,35.621643%,25.135803%);stop-opacity:1;"/>
<stop offset="0.988281" style="stop-color:rgb(100%,35.287476%,24.74823%);stop-opacity:1;"/>
<stop offset="0.992188" style="stop-color:rgb(100%,34.953308%,24.360657%);stop-opacity:1;"/>
<stop offset="1" style="stop-color:rgb(100%,34.925842%,24.330139%);stop-opacity:1;"/>
</linearGradient>
<clipPath id="clip3">
  <path d="M 32.667969 7 L 74 7 L 74 94 L 32.667969 94 Z M 32.667969 7 "/>
</clipPath>
<clipPath id="clip4">
  <path d="M 34 23 L 83.148438 23 L 83.148438 85 L 34 85 Z M 34 23 "/>
</clipPath>
<clipPath id="clip5">
  <path d="M 53 8 L 76 8 L 76 38.496094 L 53 38.496094 Z M 53 8 "/>
</clipPath>
<clipPath id="clip6">
  <path d="M 52.382812 38.015625 L 76.394531 38.015625 L 76.640625 10.179688 L 55.8125 7.390625 Z M 52.382812 38.015625 "/>
</clipPath>
<clipPath id="clip7">
  <path d="M 53 9 L 76 9 L 76 38.496094 L 53 38.496094 Z M 53 9 "/>
</clipPath>
<clipPath id="clip8">
  <path d="M 52.382812 38.015625 L 76.394531 38.015625 L 76.640625 10.179688 L 55.8125 7.390625 Z M 52.382812 38.015625 "/>
</clipPath>
<clipPath id="clip9">
  <path d="M 58 12 L 73 12 L 73 25 L 58 25 Z M 58 12 "/>
</clipPath>
<clipPath id="clip10">
  <path d="M 52.382812 38.015625 L 76.394531 38.015625 L 76.640625 10.179688 L 55.8125 7.390625 Z M 52.382812 38.015625 "/>
</clipPath>
<clipPath id="clip11">
  <path d="M 56 30 L 71 30 L 71 38.496094 L 56 38.496094 Z M 56 30 "/>
</clipPath>
<clipPath id="clip12">
  <path d="M 52.382812 38.015625 L 76.394531 38.015625 L 76.640625 10.179688 L 55.8125 7.390625 Z M 52.382812 38.015625 "/>
</clipPath>
<clipPath id="clip13">
  <path d="M 58 12 L 73 12 L 73 25 L 58 25 Z M 58 12 "/>
</clipPath>
<clipPath id="clip14">
  <path d="M 52.382812 38.015625 L 76.394531 38.015625 L 76.640625 10.179688 L 55.8125 7.390625 Z M 52.382812 38.015625 "/>
</clipPath>
<clipPath id="clip15">
  <path d="M 56 31 L 71 31 L 71 38.496094 L 56 38.496094 Z M 56 31 "/>
</clipPath>
<clipPath id="clip16">
  <path d="M 52.382812 38.015625 L 76.394531 38.015625 L 76.640625 10.179688 L 55.8125 7.390625 Z M 52.382812 38.015625 "/>
</clipPath>
<clipPath id="clip17">
  <path d="M 59 23 L 70 23 L 70 32 L 59 32 Z M 59 23 "/>
</clipPath>
<clipPath id="clip18">
  <path d="M 52.382812 38.015625 L 76.394531 38.015625 L 76.640625 10.179688 L 55.8125 7.390625 Z M 52.382812 38.015625 "/>
</clipPath>
<clipPath id="clip19">
  <path d="M 59 24 L 70 24 L 70 33 L 59 33 Z M 59 24 "/>
</clipPath>
<clipPath id="clip20">
  <path d="M 52.382812 38.015625 L 76.394531 38.015625 L 76.640625 10.179688 L 55.8125 7.390625 Z M 52.382812 38.015625 "/>
</clipPath>
<clipPath id="clip21">
  <path d="M 34 24 L 69 24 L 69 97.488281 L 34 97.488281 Z M 34 24 "/>
</clipPath>
</defs>
<g id="surface1">
<g clip-path="url(#clip1)" clip-rule="nonzero">
<g clip-path="url(#clip2)" clip-rule="nonzero">
<path style=" stroke:none;fill-rule:nonzero;fill:url(#linear0);" d="M 41.546875 27.449219 L 52.789062 28.601562 L 55.667969 0.34375 L 44.429688 -0.808594 Z M 41.546875 27.449219 "/>
</g>
</g>
<g clip-path="url(#clip3)" clip-rule="nonzero">
<path style=" stroke:none;fill-rule:nonzero;fill:rgb(36.859131%,18.818665%,13.729858%);fill-opacity:1;" d="M 45.832031 93.058594 L 40.214844 91.679688 C 39.726562 91.5625 39.253906 91.40625 38.792969 91.207031 C 38.332031 91.011719 37.886719 90.777344 37.464844 90.507812 C 37.042969 90.234375 36.644531 89.933594 36.273438 89.59375 C 35.902344 89.257812 35.558594 88.894531 35.246094 88.5 C 34.933594 88.105469 34.65625 87.6875 34.414062 87.25 C 34.171875 86.808594 33.964844 86.351562 33.796875 85.878906 C 33.628906 85.40625 33.503906 84.921875 33.414062 84.425781 C 33.328125 83.929688 33.28125 83.429688 33.273438 82.925781 L 32.726562 29.066406 C 32.722656 28.613281 32.765625 28.164062 32.847656 27.71875 C 32.933594 27.273438 33.058594 26.839844 33.226562 26.421875 C 33.398438 26 33.605469 25.601562 33.851562 25.222656 C 34.097656 24.839844 34.382812 24.492188 34.695312 24.167969 C 35.011719 23.84375 35.359375 23.554688 35.730469 23.296875 C 36.105469 23.042969 36.5 22.828125 36.914062 22.648438 C 37.328125 22.472656 37.757812 22.335938 38.199219 22.242188 C 38.640625 22.148438 39.089844 22.101562 39.539062 22.097656 L 51.285156 21.976562 C 52.816406 21.976562 53.835938 20.832031 53.988281 19.273438 L 54.777344 10.308594 C 54.816406 9.886719 54.9375 9.492188 55.140625 9.121094 C 55.34375 8.75 55.613281 8.433594 55.949219 8.175781 C 56.285156 7.917969 56.65625 7.742188 57.066406 7.640625 C 57.476562 7.539062 57.890625 7.523438 58.304688 7.597656 L 70.707031 9.800781 C 71.074219 9.863281 71.417969 9.988281 71.738281 10.175781 C 72.0625 10.363281 72.339844 10.601562 72.574219 10.890625 C 72.808594 11.179688 72.984375 11.503906 73.105469 11.855469 C 73.222656 12.210938 73.273438 12.574219 73.261719 12.949219 L 71.480469 74.121094 C 71.457031 74.929688 71.164062 75.621094 70.601562 76.199219 L 61.65625 85.363281 C 61.429688 85.589844 61.175781 85.78125 60.894531 85.929688 L 48.003906 92.789062 C 47.316406 93.15625 46.589844 93.246094 45.832031 93.058594 Z M 45.832031 93.058594 "/>
</g>
<path style=" stroke:none;fill-rule:nonzero;fill:rgb(93.728638%,47.059631%,23.529053%);fill-opacity:1;" d="M 35.613281 83.550781 L 78.234375 83.550781 C 79.992188 83.550781 81.421875 80.914062 81.421875 77.652344 L 81.421875 29.519531 C 81.421875 29.226562 81.390625 28.9375 81.335938 28.652344 C 81.277344 28.367188 81.191406 28.089844 81.082031 27.820312 C 80.96875 27.550781 80.835938 27.292969 80.671875 27.050781 C 80.511719 26.808594 80.328125 26.585938 80.121094 26.378906 C 79.917969 26.171875 79.691406 25.988281 79.453125 25.828125 C 79.210938 25.664062 78.953125 25.527344 78.6875 25.417969 C 78.417969 25.304688 78.140625 25.222656 77.855469 25.164062 C 77.570312 25.109375 77.285156 25.078125 76.992188 25.078125 L 40.035156 25.078125 C 39.746094 25.078125 39.457031 25.109375 39.171875 25.164062 C 38.886719 25.222656 38.609375 25.304688 38.34375 25.417969 C 38.074219 25.527344 37.820312 25.664062 37.578125 25.828125 C 37.335938 25.988281 37.113281 26.171875 36.910156 26.378906 C 36.703125 26.585938 36.519531 26.808594 36.359375 27.050781 C 36.195312 27.292969 36.0625 27.550781 35.949219 27.820312 C 35.839844 28.089844 35.753906 28.367188 35.699219 28.652344 C 35.640625 28.9375 35.613281 29.226562 35.613281 29.519531 Z M 35.613281 83.550781 "/>
<g clip-path="url(#clip4)" clip-rule="nonzero">
<path style=" stroke:none;fill-rule:nonzero;fill:rgb(41.958618%,14.509583%,1.568604%);fill-opacity:1;" d="M 75.210938 24.042969 L 42.152344 23.707031 C 38.039062 23.664062 34.710938 25.867188 34.730469 28.621094 L 34.828125 42.054688 L 34.828125 43.882812 L 35.085938 79.027344 C 35.085938 81.777344 38.46875 84.050781 42.582031 84.097656 L 75.644531 84.429688 C 79.761719 84.46875 83.089844 82.265625 83.070312 79.515625 L 82.695312 29.109375 C 82.691406 26.355469 79.328125 24.085938 75.210938 24.042969 Z M 80.726562 79.5 C 80.726562 81.375 78.464844 82.882812 75.65625 82.855469 L 42.59375 82.515625 C 39.78125 82.515625 37.488281 80.9375 37.488281 79.058594 L 37.207031 43.910156 L 37.207031 42.078125 L 37.09375 28.640625 C 37.09375 26.765625 39.351562 25.257812 42.164062 25.285156 L 75.226562 25.621094 C 78.035156 25.652344 80.332031 27.199219 80.332031 29.082031 Z M 80.726562 79.5 "/>
</g>
<g clip-path="url(#clip5)" clip-rule="nonzero">
<g clip-path="url(#clip6)" clip-rule="nonzero">
<path style=" stroke:none;fill-rule:nonzero;fill:rgb(31.369019%,100%,100%);fill-opacity:1;" d="M 53.332031 41.878906 L 56.796875 10.441406 C 56.832031 10.175781 56.914062 9.925781 57.042969 9.695312 C 57.171875 9.460938 57.339844 9.261719 57.550781 9.09375 C 57.757812 8.925781 57.988281 8.804688 58.246094 8.726562 C 58.5 8.652344 58.757812 8.625 59.023438 8.652344 L 74.089844 10.308594 C 74.351562 10.339844 74.601562 10.421875 74.835938 10.550781 C 75.066406 10.683594 75.269531 10.851562 75.433594 11.058594 C 75.601562 11.269531 75.722656 11.5 75.800781 11.757812 C 75.875 12.015625 75.902344 12.277344 75.875 12.542969 L 72.429688 44 C 72.394531 44.265625 72.3125 44.515625 72.183594 44.75 C 72.054688 44.984375 71.886719 45.183594 71.679688 45.351562 C 71.46875 45.515625 71.238281 45.640625 70.984375 45.714844 C 70.726562 45.792969 70.46875 45.816406 70.203125 45.789062 L 55.113281 44.132812 C 54.847656 44.101562 54.597656 44.019531 54.363281 43.886719 C 54.128906 43.757812 53.929688 43.585938 53.761719 43.375 C 53.59375 43.164062 53.472656 42.929688 53.398438 42.667969 C 53.324219 42.410156 53.300781 42.148438 53.332031 41.878906 Z M 57.628906 11.601562 L 54.398438 40.9375 C 54.375 41.160156 54.390625 41.378906 54.453125 41.59375 C 54.515625 41.808594 54.617188 42.003906 54.753906 42.179688 C 54.894531 42.355469 55.0625 42.496094 55.257812 42.601562 C 55.453125 42.710938 55.664062 42.777344 55.882812 42.800781 L 69.730469 44.339844 C 69.953125 44.363281 70.171875 44.347656 70.386719 44.285156 C 70.601562 44.222656 70.796875 44.121094 70.96875 43.980469 C 71.144531 43.839844 71.285156 43.671875 71.394531 43.476562 C 71.5 43.28125 71.566406 43.070312 71.589844 42.847656 L 74.828125 13.507812 C 74.851562 13.285156 74.832031 13.0625 74.769531 12.847656 C 74.707031 12.632812 74.609375 12.4375 74.46875 12.265625 C 74.328125 12.089844 74.160156 11.949219 73.964844 11.839844 C 73.769531 11.730469 73.558594 11.664062 73.335938 11.640625 L 59.496094 10.101562 C 59.273438 10.078125 59.054688 10.097656 58.839844 10.160156 C 58.625 10.222656 58.429688 10.324219 58.253906 10.464844 C 58.078125 10.605469 57.9375 10.773438 57.828125 10.96875 C 57.722656 11.167969 57.65625 11.375 57.628906 11.601562 Z M 57.628906 11.601562 "/>
</g>
</g>
<g clip-path="url(#clip7)" clip-rule="nonzero">
<g clip-path="url(#clip8)" clip-rule="nonzero">
<path style=" stroke:none;fill-rule:nonzero;fill:rgb(39.219666%,84.309387%,100%);fill-opacity:1;" d="M 75.351562 13.035156 L 71.867188 44.628906 C 71.839844 44.855469 71.773438 45.066406 71.664062 45.265625 C 71.554688 45.464844 71.414062 45.632812 71.238281 45.773438 C 71.0625 45.917969 70.867188 46.019531 70.648438 46.082031 C 70.433594 46.144531 70.210938 46.164062 69.988281 46.136719 L 55.0625 44.480469 C 54.839844 44.453125 54.628906 44.386719 54.429688 44.277344 C 54.230469 44.167969 54.0625 44.027344 53.921875 43.851562 C 53.78125 43.671875 53.679688 43.476562 53.617188 43.257812 C 53.554688 43.042969 53.535156 42.820312 53.558594 42.59375 L 57.046875 11 C 57.070312 10.777344 57.136719 10.566406 57.246094 10.367188 C 57.355469 10.167969 57.496094 10 57.671875 9.855469 C 57.847656 9.714844 58.046875 9.613281 58.261719 9.550781 C 58.476562 9.488281 58.699219 9.46875 58.921875 9.492188 L 73.847656 11.152344 C 74.074219 11.175781 74.285156 11.246094 74.480469 11.355469 C 74.679688 11.460938 74.847656 11.605469 74.988281 11.78125 C 75.128906 11.960938 75.230469 12.15625 75.292969 12.375 C 75.355469 12.589844 75.375 12.8125 75.351562 13.035156 Z M 75.351562 13.035156 "/>
<path style=" stroke:none;fill-rule:nonzero;fill:rgb(6.669617%,23.529053%,41.958618%);fill-opacity:1;" d="M 53.152344 42.46875 L 56.621094 11.03125 C 56.652344 10.765625 56.734375 10.515625 56.863281 10.28125 C 56.992188 10.050781 57.164062 9.847656 57.371094 9.683594 C 57.578125 9.515625 57.808594 9.394531 58.066406 9.316406 C 58.320312 9.242188 58.582031 9.214844 58.847656 9.242188 L 73.933594 10.917969 C 74.199219 10.949219 74.449219 11.03125 74.679688 11.164062 C 74.914062 11.292969 75.113281 11.464844 75.277344 11.671875 C 75.445312 11.878906 75.566406 12.113281 75.640625 12.371094 C 75.71875 12.625 75.742188 12.886719 75.714844 13.152344 L 72.269531 44.589844 C 72.238281 44.855469 72.15625 45.105469 72.027344 45.339844 C 71.894531 45.574219 71.726562 45.773438 71.519531 45.941406 C 71.3125 46.105469 71.078125 46.226562 70.824219 46.304688 C 70.570312 46.378906 70.308594 46.40625 70.042969 46.378906 L 54.957031 44.703125 C 54.6875 44.671875 54.4375 44.59375 54.203125 44.464844 C 53.96875 44.335938 53.765625 44.164062 53.597656 43.957031 C 53.429688 43.746094 53.308594 43.515625 53.230469 43.257812 C 53.152344 43 53.128906 42.738281 53.152344 42.46875 Z M 57.089844 11.332031 L 53.664062 42.28125 C 53.636719 42.515625 53.65625 42.746094 53.722656 42.972656 C 53.789062 43.203125 53.894531 43.40625 54.042969 43.59375 C 54.191406 43.777344 54.367188 43.925781 54.574219 44.042969 C 54.78125 44.15625 55 44.226562 55.234375 44.253906 L 69.84375 45.871094 C 70.078125 45.898438 70.308594 45.878906 70.535156 45.8125 C 70.761719 45.75 70.96875 45.640625 71.152344 45.496094 C 71.335938 45.347656 71.484375 45.167969 71.601562 44.960938 C 71.714844 44.753906 71.785156 44.535156 71.8125 44.296875 L 75.222656 13.335938 C 75.246094 13.101562 75.226562 12.871094 75.164062 12.644531 C 75.097656 12.414062 74.992188 12.210938 74.84375 12.023438 C 74.695312 11.839844 74.519531 11.691406 74.3125 11.578125 C 74.105469 11.464844 73.882812 11.394531 73.648438 11.371094 L 59.050781 9.746094 C 58.816406 9.71875 58.585938 9.738281 58.355469 9.804688 C 58.128906 9.871094 57.925781 9.980469 57.742188 10.128906 C 57.558594 10.277344 57.410156 10.457031 57.296875 10.667969 C 57.183594 10.875 57.113281 11.097656 57.089844 11.332031 Z M 57.089844 11.332031 "/>
</g>
</g>
<g clip-path="url(#clip9)" clip-rule="nonzero">
<g clip-path="url(#clip10)" clip-rule="nonzero">
<path style=" stroke:none;fill-rule:nonzero;fill:rgb(100%,100%,100%);fill-opacity:1;" d="M 58.140625 22.695312 L 58.941406 15.464844 C 58.964844 15.28125 59.03125 15.117188 59.152344 14.976562 C 59.269531 14.835938 59.417969 14.742188 59.597656 14.691406 C 60.648438 14.425781 61.441406 13.820312 61.976562 12.871094 C 62.089844 12.671875 62.25 12.519531 62.453125 12.414062 C 62.65625 12.304688 62.871094 12.265625 63.097656 12.285156 L 69.335938 12.980469 C 69.570312 13.003906 69.777344 13.09375 69.957031 13.246094 C 70.136719 13.398438 70.261719 13.589844 70.324219 13.820312 C 70.570312 14.824219 71.144531 15.578125 72.046875 16.078125 C 72.203125 16.167969 72.324219 16.292969 72.410156 16.457031 C 72.492188 16.617188 72.523438 16.789062 72.503906 16.972656 L 71.730469 24.203125 L 71.109375 24.144531 L 71.90625 16.914062 C 71.917969 16.789062 71.871094 16.695312 71.757812 16.632812 C 71.25 16.351562 70.820312 15.980469 70.464844 15.519531 C 70.109375 15.058594 69.859375 14.542969 69.71875 13.976562 C 69.648438 13.746094 69.492188 13.617188 69.253906 13.589844 L 63.03125 12.871094 C 62.804688 12.855469 62.632812 12.949219 62.523438 13.152344 C 61.910156 14.25 61 14.964844 59.789062 15.296875 C 59.664062 15.328125 59.597656 15.40625 59.585938 15.535156 L 58.769531 22.761719 Z M 58.140625 22.695312 "/>
</g>
</g>
<g clip-path="url(#clip11)" clip-rule="nonzero">
<g clip-path="url(#clip12)" clip-rule="nonzero">
<path style=" stroke:none;fill-rule:nonzero;fill:rgb(100%,100%,100%);fill-opacity:1;" d="M 56.4375 38.183594 L 57.238281 30.957031 L 57.855469 31.023438 L 57.054688 38.257812 C 57.039062 38.382812 57.089844 38.476562 57.203125 38.539062 C 57.734375 38.816406 58.195312 39.1875 58.578125 39.648438 C 58.964844 40.113281 59.242188 40.636719 59.417969 41.214844 C 59.484375 41.441406 59.632812 41.570312 59.867188 41.601562 L 66.097656 42.292969 C 66.335938 42.320312 66.515625 42.226562 66.632812 42.019531 C 66.894531 41.5 67.246094 41.054688 67.691406 40.679688 C 68.132812 40.308594 68.632812 40.039062 69.1875 39.871094 C 69.308594 39.835938 69.378906 39.757812 69.390625 39.628906 L 70.195312 32.398438 L 70.816406 32.464844 L 70.003906 39.703125 C 69.957031 40.097656 69.742188 40.355469 69.359375 40.46875 C 68.359375 40.757812 67.628906 41.371094 67.167969 42.308594 C 67.058594 42.519531 66.894531 42.679688 66.683594 42.789062 C 66.472656 42.902344 66.25 42.941406 66.015625 42.914062 L 59.789062 42.21875 C 59.5625 42.191406 59.359375 42.105469 59.183594 41.957031 C 59.003906 41.808594 58.882812 41.625 58.816406 41.402344 C 58.507812 40.355469 57.867188 39.585938 56.902344 39.085938 C 56.738281 38.996094 56.617188 38.871094 56.53125 38.707031 C 56.445312 38.542969 56.414062 38.367188 56.4375 38.183594 Z M 56.4375 38.183594 "/>
</g>
</g>
<g clip-path="url(#clip13)" clip-rule="nonzero">
<g clip-path="url(#clip14)" clip-rule="nonzero">
<path style=" stroke:none;fill-rule:nonzero;fill:rgb(6.669617%,23.529053%,41.958618%);fill-opacity:1;" d="M 58.089844 23.171875 L 58.886719 15.945312 C 58.90625 15.761719 58.980469 15.597656 59.097656 15.457031 C 59.21875 15.316406 59.367188 15.222656 59.546875 15.171875 C 60.597656 14.898438 61.390625 14.285156 61.921875 13.332031 C 62.035156 13.132812 62.191406 12.976562 62.398438 12.871094 C 62.601562 12.765625 62.820312 12.726562 63.046875 12.746094 L 69.277344 13.441406 C 69.519531 13.457031 69.734375 13.546875 69.921875 13.699219 C 70.105469 13.851562 70.234375 14.046875 70.300781 14.28125 C 70.546875 15.292969 71.125 16.054688 72.035156 16.5625 C 72.195312 16.648438 72.316406 16.773438 72.402344 16.9375 C 72.484375 17.097656 72.515625 17.269531 72.496094 17.453125 L 71.671875 24.683594 L 71.054688 24.613281 L 71.851562 17.382812 C 71.867188 17.253906 71.820312 17.164062 71.707031 17.105469 C 71.199219 16.824219 70.765625 16.453125 70.414062 15.988281 C 70.058594 15.527344 69.808594 15.015625 69.667969 14.449219 C 69.597656 14.21875 69.441406 14.085938 69.203125 14.058594 L 62.980469 13.382812 C 62.753906 13.367188 62.585938 13.460938 62.472656 13.660156 C 62.175781 14.1875 61.792969 14.632812 61.316406 15.003906 C 60.839844 15.371094 60.3125 15.632812 59.730469 15.789062 C 59.605469 15.820312 59.539062 15.902344 59.519531 16.027344 L 58.707031 23.246094 Z M 58.089844 23.171875 "/>
</g>
</g>
<g clip-path="url(#clip15)" clip-rule="nonzero">
<g clip-path="url(#clip16)" clip-rule="nonzero">
<path style=" stroke:none;fill-rule:nonzero;fill:rgb(6.669617%,23.529053%,41.958618%);fill-opacity:1;" d="M 56.386719 38.667969 L 57.179688 31.433594 L 57.800781 31.507812 L 57.003906 38.734375 C 56.988281 38.859375 57.039062 38.953125 57.152344 39.015625 C 58.265625 39.597656 59.003906 40.488281 59.367188 41.695312 C 59.425781 41.929688 59.574219 42.058594 59.816406 42.078125 L 66.046875 42.769531 C 66.273438 42.789062 66.445312 42.695312 66.554688 42.496094 C 66.816406 41.976562 67.167969 41.53125 67.609375 41.15625 C 68.054688 40.785156 68.554688 40.515625 69.109375 40.351562 C 69.230469 40.316406 69.296875 40.234375 69.3125 40.113281 L 70.144531 32.859375 L 70.765625 32.925781 L 69.96875 40.179688 C 69.945312 40.359375 69.878906 40.519531 69.761719 40.660156 C 69.644531 40.800781 69.5 40.894531 69.324219 40.945312 C 68.324219 41.242188 67.59375 41.855469 67.128906 42.792969 C 67.015625 43 66.851562 43.160156 66.644531 43.269531 C 66.433594 43.378906 66.210938 43.417969 65.972656 43.390625 L 59.746094 42.699219 C 59.515625 42.671875 59.3125 42.585938 59.132812 42.4375 C 58.957031 42.289062 58.835938 42.101562 58.769531 41.878906 C 58.457031 40.832031 57.816406 40.0625 56.851562 39.5625 C 56.6875 39.476562 56.5625 39.351562 56.480469 39.1875 C 56.394531 39.023438 56.363281 38.847656 56.386719 38.667969 Z M 56.386719 38.667969 "/>
</g>
</g>
<g clip-path="url(#clip17)" clip-rule="nonzero">
<g clip-path="url(#clip18)" clip-rule="nonzero">
<path style=" stroke:none;fill-rule:nonzero;fill:rgb(100%,100%,100%);fill-opacity:1;" d="M 65.761719 23.9375 L 65.761719 23.992188 L 65.5625 25.816406 C 65.5625 25.863281 65.5625 25.863281 65.601562 25.867188 L 67.480469 26.078125 C 67.570312 26.09375 67.65625 26.09375 67.746094 26.078125 C 67.90625 26.042969 68.03125 25.953125 68.113281 25.8125 C 68.183594 25.707031 68.234375 25.59375 68.261719 25.472656 C 68.289062 25.359375 68.289062 25.242188 68.261719 25.125 C 68.257812 25.082031 68.242188 25.046875 68.214844 25.011719 C 68.214844 25.011719 68.214844 25.011719 68.242188 25.011719 C 68.480469 24.902344 68.726562 24.808594 68.980469 24.734375 C 69.121094 24.730469 69.238281 24.78125 69.328125 24.890625 C 69.398438 24.988281 69.453125 25.09375 69.488281 25.210938 C 69.542969 25.378906 69.578125 25.550781 69.589844 25.726562 C 69.625 26.039062 69.550781 26.328125 69.359375 26.582031 C 69.273438 26.691406 69.167969 26.78125 69.046875 26.859375 C 68.78125 27.023438 68.488281 27.121094 68.175781 27.148438 C 67.929688 27.175781 67.6875 27.175781 67.445312 27.148438 L 65.480469 26.929688 C 65.421875 26.929688 65.433594 26.929688 65.421875 26.96875 C 65.421875 27.132812 65.386719 27.296875 65.371094 27.484375 C 65.367188 27.503906 65.359375 27.523438 65.339844 27.539062 L 64.320312 28.347656 C 64.320312 28.347656 64.320312 28.316406 64.320312 28.304688 C 64.371094 27.828125 64.421875 27.351562 64.476562 26.867188 C 64.476562 26.820312 64.476562 26.820312 64.433594 26.8125 L 61.734375 26.515625 C 61.492188 26.484375 61.277344 26.542969 61.082031 26.695312 C 60.976562 26.777344 60.894531 26.882812 60.84375 27.011719 C 60.765625 27.195312 60.726562 27.390625 60.726562 27.589844 C 60.71875 27.78125 60.75 27.96875 60.8125 28.148438 C 60.902344 28.375 61.015625 28.585938 61.160156 28.785156 C 61.339844 29.054688 61.554688 29.296875 61.796875 29.511719 C 62.019531 29.714844 62.269531 29.871094 62.546875 29.980469 C 62.660156 30.019531 62.773438 30.050781 62.890625 30.070312 C 62.890625 30.03125 62.890625 29.988281 62.890625 29.953125 C 62.890625 29.722656 62.933594 29.5 63.027344 29.285156 C 63.171875 28.949219 63.425781 28.746094 63.785156 28.683594 C 63.921875 28.65625 64.058594 28.644531 64.199219 28.644531 L 64.457031 28.644531 C 64.726562 28.679688 64.957031 28.789062 65.15625 28.972656 C 65.359375 29.148438 65.46875 29.371094 65.488281 29.636719 C 65.523438 29.84375 65.523438 30.050781 65.488281 30.261719 C 65.421875 30.605469 65.25 30.886719 64.980469 31.105469 C 64.59375 31.441406 64.148438 31.628906 63.640625 31.675781 C 63.414062 31.699219 63.1875 31.699219 62.960938 31.675781 C 62.496094 31.609375 62.0625 31.449219 61.660156 31.203125 C 61.386719 31.03125 61.132812 30.832031 60.898438 30.605469 C 60.613281 30.328125 60.359375 30.027344 60.136719 29.695312 C 59.863281 29.285156 59.683594 28.835938 59.589844 28.347656 C 59.558594 28.15625 59.539062 27.960938 59.535156 27.765625 C 59.527344 27.628906 59.527344 27.492188 59.535156 27.355469 C 59.554688 27.074219 59.636719 26.816406 59.789062 26.582031 C 59.941406 26.324219 60.128906 26.097656 60.351562 25.90625 C 60.5 25.773438 60.65625 25.65625 60.828125 25.554688 C 60.964844 25.476562 61.109375 25.421875 61.261719 25.390625 L 61.34375 25.390625 L 64.476562 25.742188 C 64.527344 25.742188 64.527344 25.742188 64.535156 25.695312 C 64.570312 25.398438 64.601562 25.101562 64.632812 24.800781 C 64.636719 24.777344 64.648438 24.757812 64.667969 24.746094 L 65.6875 23.941406 Z M 65.761719 23.9375 "/>
</g>
</g>
<g clip-path="url(#clip19)" clip-rule="nonzero">
<g clip-path="url(#clip20)" clip-rule="nonzero">
<path style=" stroke:none;fill-rule:nonzero;fill:rgb(6.669617%,23.529053%,41.958618%);fill-opacity:1;" d="M 65.707031 24.417969 L 65.707031 24.46875 L 65.503906 26.292969 C 65.503906 26.339844 65.503906 26.339844 65.550781 26.351562 L 67.429688 26.554688 C 67.519531 26.570312 67.605469 26.570312 67.695312 26.554688 C 67.855469 26.519531 67.976562 26.433594 68.0625 26.292969 C 68.132812 26.1875 68.179688 26.074219 68.207031 25.949219 C 68.230469 25.835938 68.230469 25.71875 68.207031 25.601562 C 68.195312 25.5625 68.179688 25.527344 68.160156 25.496094 C 68.394531 25.390625 68.636719 25.308594 68.886719 25.242188 C 69.027344 25.238281 69.144531 25.289062 69.230469 25.402344 C 69.304688 25.5 69.359375 25.605469 69.394531 25.71875 C 69.449219 25.886719 69.484375 26.058594 69.496094 26.230469 C 69.535156 26.546875 69.457031 26.832031 69.269531 27.089844 C 69.179688 27.203125 69.074219 27.292969 68.949219 27.363281 C 68.683594 27.53125 68.394531 27.628906 68.082031 27.664062 C 67.839844 27.6875 67.597656 27.6875 67.351562 27.664062 L 65.386719 27.441406 C 65.332031 27.441406 65.335938 27.441406 65.332031 27.488281 C 65.332031 27.652344 65.296875 27.816406 65.28125 28 C 65.277344 28.023438 65.269531 28.042969 65.25 28.058594 L 64.226562 28.871094 C 64.222656 28.855469 64.222656 28.839844 64.226562 28.824219 L 64.382812 27.390625 C 64.382812 27.339844 64.382812 27.339844 64.339844 27.335938 L 61.644531 27.03125 C 61.402344 27.003906 61.183594 27.0625 60.992188 27.210938 C 60.882812 27.292969 60.800781 27.402344 60.75 27.527344 C 60.671875 27.714844 60.632812 27.910156 60.632812 28.113281 C 60.632812 28.320312 60.667969 28.515625 60.746094 28.707031 C 60.84375 28.910156 60.960938 29.097656 61.097656 29.273438 C 61.285156 29.539062 61.496094 29.78125 61.734375 30 C 61.957031 30.203125 62.210938 30.355469 62.492188 30.460938 C 62.605469 30.5 62.71875 30.535156 62.835938 30.558594 C 62.839844 30.519531 62.839844 30.480469 62.835938 30.441406 C 62.835938 30.207031 62.882812 29.984375 62.976562 29.773438 C 63.121094 29.4375 63.375 29.238281 63.734375 29.175781 C 63.867188 29.144531 64.003906 29.132812 64.140625 29.136719 C 64.230469 29.132812 64.316406 29.132812 64.40625 29.136719 C 64.675781 29.171875 64.90625 29.277344 65.105469 29.460938 C 65.300781 29.636719 65.414062 29.859375 65.4375 30.121094 C 65.472656 30.332031 65.472656 30.539062 65.4375 30.746094 C 65.367188 31.089844 65.199219 31.371094 64.925781 31.59375 C 64.542969 31.929688 64.097656 32.121094 63.589844 32.167969 C 63.363281 32.191406 63.140625 32.191406 62.914062 32.167969 C 62.449219 32.101562 62.015625 31.945312 61.613281 31.695312 C 61.335938 31.523438 61.082031 31.324219 60.847656 31.097656 C 60.5625 30.824219 60.308594 30.523438 60.09375 30.195312 C 59.816406 29.78125 59.636719 29.332031 59.546875 28.847656 C 59.511719 28.648438 59.5 28.449219 59.503906 28.246094 C 59.503906 28.109375 59.503906 27.976562 59.503906 27.835938 C 59.539062 27.558594 59.632812 27.300781 59.789062 27.066406 C 60.042969 26.640625 60.382812 26.296875 60.8125 26.042969 C 60.949219 25.960938 61.09375 25.90625 61.25 25.878906 C 61.277344 25.875 61.304688 25.875 61.332031 25.878906 L 64.460938 26.226562 C 64.519531 26.226562 64.519531 26.226562 64.523438 26.179688 C 64.554688 25.882812 64.589844 25.585938 64.621094 25.289062 C 64.621094 25.265625 64.632812 25.242188 64.652344 25.226562 L 65.699219 24.429688 Z M 65.707031 24.417969 "/>
</g>
</g>
<path style=" stroke:none;fill-rule:nonzero;fill:rgb(100%,100%,100%);fill-opacity:1;" d="M 39.953125 38.59375 L 76.476562 38.59375 L 76.476562 39.402344 L 39.953125 39.402344 Z M 39.953125 38.59375 "/>
<path style=" stroke:none;fill-rule:nonzero;fill:rgb(100%,100%,100%);fill-opacity:1;" d="M 39.953125 37.875 L 76.476562 37.875 L 76.476562 37.945312 L 39.953125 37.945312 Z M 39.953125 37.875 "/>
<path style=" stroke:none;fill-rule:nonzero;fill:rgb(100%,100%,100%);fill-opacity:1;" d="M 39.953125 51.539062 L 76.476562 51.539062 L 76.476562 52.351562 L 39.953125 52.351562 Z M 39.953125 51.539062 "/>
<path style=" stroke:none;fill-rule:nonzero;fill:rgb(100%,100%,100%);fill-opacity:1;" d="M 39.953125 50.824219 L 76.476562 50.824219 L 76.476562 50.890625 L 39.953125 50.890625 Z M 39.953125 50.824219 "/>
<path style=" stroke:none;fill-rule:nonzero;fill:rgb(85.879517%,91.758728%,100%);fill-opacity:1;" d="M 66.9375 93.117188 C 66.9375 95.222656 65.40625 96.570312 63.421875 96.113281 L 40.339844 90.773438 C 39.839844 90.625 39.371094 90.398438 38.9375 90.101562 C 38.503906 89.800781 38.128906 89.445312 37.804688 89.027344 C 37.484375 88.609375 37.238281 88.152344 37.058594 87.65625 C 36.882812 87.160156 36.785156 86.648438 36.765625 86.121094 L 36.300781 46.660156 L 36.300781 44.609375 L 36.117188 29.539062 C 36.117188 27.425781 37.652344 26.082031 39.632812 26.539062 L 62.707031 31.90625 C 63.214844 32.054688 63.683594 32.273438 64.121094 32.574219 C 64.558594 32.871094 64.9375 33.226562 65.261719 33.644531 C 65.582031 34.0625 65.835938 34.519531 66.011719 35.019531 C 66.191406 35.515625 66.289062 36.03125 66.304688 36.558594 Z M 66.9375 93.117188 "/>
<g clip-path="url(#clip21)" clip-rule="nonzero">
<path style=" stroke:none;fill-rule:nonzero;fill:rgb(24.308777%,65.098572%,98.81897%);fill-opacity:1;" d="M 62.707031 30.410156 L 39.625 25.109375 C 36.757812 24.449219 34.449219 26.394531 34.484375 29.445312 L 34.648438 44.339844 L 34.648438 46.390625 L 35.082031 85.339844 C 35.113281 88.417969 37.476562 91.410156 40.347656 92.070312 L 63.421875 97.371094 C 66.296875 98.03125 68.605469 96.082031 68.566406 93.035156 L 67.960938 37.140625 C 67.960938 34.089844 65.574219 31.070312 62.707031 30.410156 Z M 66.9375 92.644531 C 66.9375 94.730469 65.40625 96.058594 63.425781 95.605469 L 40.351562 90.308594 C 39.847656 90.164062 39.378906 89.945312 38.945312 89.648438 C 38.515625 89.355469 38.136719 89 37.816406 88.585938 C 37.492188 88.171875 37.246094 87.71875 37.066406 87.222656 C 36.890625 86.730469 36.792969 86.21875 36.777344 85.695312 L 36.300781 46.75 L 36.300781 44.699219 L 36.132812 29.824219 C 36.132812 27.738281 37.664062 26.410156 39.648438 26.863281 L 62.722656 32.164062 C 63.226562 32.304688 63.699219 32.523438 64.132812 32.816406 C 64.570312 33.109375 64.949219 33.464844 65.273438 33.878906 C 65.597656 34.292969 65.847656 34.746094 66.027344 35.242188 C 66.207031 35.738281 66.304688 36.25 66.320312 36.773438 Z M 66.9375 92.644531 "/>
</g>
<path style=" stroke:none;fill-rule:nonzero;fill:rgb(24.308777%,65.098572%,98.81897%);fill-opacity:1;" d="M 44.804688 30.21875 C 44.871094 30.722656 45.007812 31.203125 45.214844 31.664062 C 45.425781 32.121094 45.695312 32.542969 46.03125 32.921875 C 46.367188 33.296875 46.75 33.621094 47.179688 33.882812 C 47.609375 34.144531 48.070312 34.339844 48.558594 34.464844 L 55.707031 36.082031 C 57.628906 36.519531 59.074219 35.324219 58.933594 33.417969 Z M 49.980469 33.925781 C 49.765625 33.867188 49.582031 33.753906 49.433594 33.585938 C 49.285156 33.417969 49.195312 33.222656 49.164062 32.996094 C 49.152344 32.90625 49.164062 32.816406 49.195312 32.726562 C 49.230469 32.640625 49.28125 32.566406 49.355469 32.507812 C 49.425781 32.449219 49.507812 32.410156 49.601562 32.394531 C 49.691406 32.375 49.78125 32.382812 49.871094 32.414062 C 50.085938 32.46875 50.269531 32.582031 50.421875 32.75 C 50.570312 32.921875 50.65625 33.117188 50.6875 33.339844 C 50.699219 33.433594 50.6875 33.523438 50.65625 33.609375 C 50.621094 33.699219 50.570312 33.769531 50.496094 33.832031 C 50.425781 33.890625 50.34375 33.929688 50.25 33.945312 C 50.160156 33.960938 50.070312 33.957031 49.980469 33.925781 Z M 55.144531 34.574219 L 51.425781 33.734375 C 51.40625 33.726562 51.394531 33.710938 51.390625 33.691406 L 51.390625 33.421875 C 51.390625 33.398438 51.402344 33.386719 51.425781 33.390625 L 55.140625 34.238281 C 55.164062 34.242188 55.175781 34.253906 55.175781 34.277344 L 55.175781 34.550781 Z M 55.144531 34.574219 "/>
<path style=" stroke:none;fill-rule:nonzero;fill:rgb(24.308777%,65.098572%,98.81897%);fill-opacity:1;" d="M 53.664062 89.40625 L 50.003906 88.558594 C 49.792969 88.503906 49.625 88.390625 49.488281 88.21875 C 49.355469 88.050781 49.285156 87.859375 49.277344 87.640625 C 49.269531 87.550781 49.28125 87.460938 49.316406 87.375 C 49.351562 87.289062 49.402344 87.21875 49.472656 87.15625 C 49.542969 87.097656 49.625 87.058594 49.714844 87.039062 C 49.804688 87.019531 49.894531 87.023438 49.980469 87.046875 L 53.664062 87.886719 C 53.871094 87.949219 54.039062 88.0625 54.171875 88.230469 C 54.304688 88.402344 54.375 88.59375 54.382812 88.8125 C 54.390625 88.90625 54.378906 88.996094 54.34375 89.082031 C 54.308594 89.167969 54.253906 89.242188 54.179688 89.300781 C 54.109375 89.359375 54.027344 89.398438 53.933594 89.417969 C 53.84375 89.4375 53.753906 89.433594 53.664062 89.40625 Z M 53.664062 89.40625 "/>
</g>
</svg>
