<?xml version="1.0" encoding="utf-8"?>
<!-- Generator: Adobe Illustrator 26.0.0, SVG Export Plug-In . SVG Version: 6.00 Build 0)  -->
<svg version="1.1" id="Layer_1" xmlns="http://www.w3.org/2000/svg" xmlns:xlink="http://www.w3.org/1999/xlink" x="0px" y="0px"
	 viewBox="0 0 60 60" style="enable-background:new 0 0 60 60;" xml:space="preserve">
<style type="text/css">
	.st0{fill:#FFFFFF;}
	.st1{fill:#F3D769;}
</style>
<g>
	<path class="st0" d="M23.15,1.64c-11.8,0-21.36,9.56-21.36,21.36c0,4.22,1.24,8.14,3.35,11.45c0.13,1.04,0.18,2.56-0.24,4.3
		c-0.76,3.14-2.59,5.15-3.49,6.01c1.43-0.01,3.38-0.17,5.59-0.81c2.38-0.68,4.21-1.67,5.47-2.48c3.15,1.82,6.79,2.89,10.69,2.89
		c11.8,0,21.36-9.56,21.36-21.36S34.95,1.64,23.15,1.64z"/>
	<path class="st0" d="M55.1,52.35c-0.42-1.74-0.37-3.26-0.24-4.3c2.11-3.31,3.35-7.23,3.35-11.45c0-8.54-5.02-15.88-12.26-19.3
		c0.88,2.41,1.39,5.01,1.39,7.72c0,12.45-10.09,22.54-22.54,22.54c-2.4,0-4.71-0.38-6.88-1.08c3.57,6.82,10.7,11.47,18.93,11.47
		c3.9,0,7.54-1.06,10.69-2.89c1.25,0.8,3.09,1.79,5.47,2.48c2.21,0.64,4.16,0.8,5.59,0.81C57.7,57.5,55.86,55.49,55.1,52.35z"/>
	<circle class="st1" cx="11.12" cy="23.24" r="2.75"/>
	<circle class="st1" cx="22.46" cy="23.24" r="2.75"/>
	<circle class="st1" cx="33.81" cy="23.24" r="2.75"/>
</g>
</svg>
