<svg xmlns="http://www.w3.org/2000/svg" viewBox="0 0 119.22 142.32"><defs><style>.cls-1{fill:none;}.cls-2{fill:#1d1d1b;}.cls-3{fill:#1f5480;}.cls-4{fill:#dbeaff;}.cls-5{fill:#3ea6fc;}</style></defs><title>Asset 1</title><g id="Layer_2" data-name="Layer 2"><g id="Layer_1-2" data-name="Layer 1"><polygon class="cls-1" points="44.98 10.38 41.52 10.38 41.52 17.3 38.06 17.3 38.06 24.22 41.52 24.22 41.52 20.76 44.98 20.76 44.98 27.68 34.6 27.68 34.6 31.14 41.52 31.14 41.52 34.6 48.45 34.6 48.45 31.14 51.9 31.14 51.9 24.22 48.45 24.22 48.45 17.3 44.98 17.3 44.98 13.84 48.45 13.84 48.45 6.92 44.98 6.92 44.98 10.38"/><path class="cls-1" d="M56.47,59.27a2.52,2.52,0,0,1-.28-.44h-.83v3.46h1.11Z"/><rect class="cls-1" x="48.45" y="51.91" width="3.46" height="3.46"/><rect class="cls-1" x="51.9" y="62.29" width="3.46" height="3.46"/><rect class="cls-1" x="44.98" y="48.44" width="3.46" height="3.46"/><rect class="cls-1" x="65.75" y="13.84" width="3.46" height="3.46"/><rect class="cls-1" x="62.28" y="6.92" width="3.46" height="3.46"/><rect class="cls-1" x="65.75" y="3.46" width="3.46" height="3.46"/><rect class="cls-1" x="65.75" y="20.76" width="3.46" height="3.46"/><rect class="cls-1" x="51.9" y="72.67" width="3.46" height="3.46"/><polygon class="cls-1" points="55.37 76.13 55.37 79.59 48.45 79.59 48.45 76.13 44.98 76.13 44.98 79.59 38.06 79.59 38.06 76.13 34.6 76.13 34.6 79.59 31.14 79.59 31.14 83.05 34.6 83.05 34.6 86.51 44.98 86.51 44.98 93.43 48.45 93.43 48.45 83.05 56.47 83.05 56.47 76.13 55.37 76.13"/><rect class="cls-1" x="51.9" y="55.36" width="3.46" height="3.46"/><rect class="cls-1" x="44.98" y="55.36" width="3.46" height="3.46"/><rect class="cls-1" x="27.68" y="34.6" width="3.46" height="3.46"/><rect class="cls-1" x="6.92" y="83.05" width="10.38" height="10.38"/><rect class="cls-1" x="6.92" y="6.92" width="10.38" height="10.38"/><rect class="cls-1" x="83.05" y="6.92" width="10.38" height="10.38"/><rect class="cls-1" x="31.14" y="31.14" width="3.46" height="3.46"/><rect class="cls-1" x="48.45" y="34.6" width="3.46" height="3.46"/><rect class="cls-1" x="34.6" y="13.84" width="3.46" height="3.46"/><rect class="cls-1" x="51.9" y="20.76" width="3.46" height="3.46"/><polygon class="cls-1" points="58.83 24.22 62.28 24.22 62.28 10.38 58.83 10.38 58.83 13.84 55.37 13.84 55.37 20.76 58.83 20.76 58.83 24.22"/><rect class="cls-1" x="48.45" y="13.84" width="3.46" height="3.46"/><rect class="cls-1" x="55.36" y="69.21" width="1.11" height="3.46"/><path class="cls-1" d="M55.36,48.44H51.9v3.47h4V49.48a3,3,0,0,1,.62-1.88V45H55.36Z"/><rect class="cls-1" x="24.22" y="41.52" width="3.46" height="3.46"/><polygon class="cls-1" points="44.98 69.21 48.45 69.21 48.45 72.67 51.9 72.67 51.9 65.75 48.45 65.75 48.45 62.28 44.98 62.28 44.98 65.75 41.52 65.75 41.52 69.21 38.06 69.21 38.06 65.75 34.6 65.75 34.6 69.21 31.14 69.21 31.14 65.75 27.68 65.75 27.68 72.67 44.98 72.67 44.98 69.21"/><rect class="cls-1" x="41.52" y="51.91" width="3.46" height="3.46"/><rect class="cls-1" x="20.76" y="51.91" width="3.46" height="3.46"/><rect class="cls-1" x="41.52" y="93.43" width="3.46" height="3.46"/><rect class="cls-1" x="20.76" y="38.06" width="3.46" height="3.46"/><rect class="cls-1" x="55.36" y="93.43" width="1.11" height="3.46"/><rect class="cls-1" x="34.6" y="34.6" width="6.92" height="6.92"/><polygon class="cls-1" points="20.76 34.6 24.22 34.6 24.22 31.14 17.3 31.14 17.3 38.06 20.76 38.06 20.76 34.6"/><rect class="cls-1" x="20.76" y="44.98" width="3.46" height="3.46"/><rect class="cls-1" x="27.68" y="27.68" width="3.46" height="3.46"/><rect class="cls-1" x="31.14" y="17.3" width="3.46" height="6.92"/><polygon class="cls-2" points="34.6 13.84 38.06 13.84 38.06 17.3 41.52 17.3 41.52 10.38 44.98 10.38 44.98 6.92 48.45 6.92 48.45 0 44.98 0 44.98 3.46 41.52 3.46 41.52 0 31.14 0 31.14 3.46 38.06 3.46 38.06 10.38 31.14 10.38 31.14 17.3 34.6 17.3 34.6 13.84"/><rect class="cls-2" x="51.9" width="3.46" height="3.46"/><polygon class="cls-2" points="65.75 3.46 69.2 3.46 69.2 0 62.28 0 62.28 6.92 65.75 6.92 65.75 3.46"/><rect class="cls-2" x="27.68" y="3.46" width="3.46" height="3.46"/><polygon class="cls-2" points="51.9 13.84 51.9 17.3 48.45 17.3 48.45 24.22 51.9 24.22 51.9 20.76 55.37 20.76 55.37 13.84 58.83 13.84 58.83 10.38 62.28 10.38 62.28 6.92 58.83 6.92 58.83 3.46 55.37 3.46 55.37 10.38 51.9 10.38 51.9 6.92 48.45 6.92 48.45 13.84 51.9 13.84"/><path class="cls-2" d="M65.75,6.92v3.46H62.28V24.22H58.83v3.46h3.45v3.38a10.85,10.85,0,0,1,5.16-1.3h1.77V24.22H65.75V20.76h3.46V17.3H65.75V13.84h3.46V10.38h3.46V3.46H69.21V6.92Z"/><path class="cls-2" d="M24.22,0H0V24.22H24.22ZM17.3,17.3H6.92V6.92H17.3Z"/><path class="cls-2" d="M100.35,0H76.13V24.22h24.22ZM93.43,17.3H83.05V6.92H93.43Z"/><rect class="cls-2" x="44.98" y="13.84" width="3.46" height="3.46"/><rect class="cls-2" x="69.21" y="13.84" width="3.46" height="3.46"/><polygon class="cls-2" points="31.14 31.14 34.6 31.14 34.6 27.68 44.98 27.68 44.98 20.76 41.52 20.76 41.52 24.22 38.06 24.22 38.06 17.3 34.6 17.3 34.6 24.22 31.14 24.22 31.14 17.3 27.68 17.3 27.68 27.68 31.14 27.68 31.14 31.14"/><rect class="cls-2" x="55.36" y="20.76" width="3.46" height="3.46"/><rect class="cls-2" x="69.21" y="20.76" width="3.46" height="3.46"/><polygon class="cls-2" points="51.9 38.06 55.37 38.06 55.37 24.22 51.9 24.22 51.9 31.14 48.45 31.14 48.45 34.6 51.9 34.6 51.9 38.06"/><polygon class="cls-2" points="31.14 34.6 31.14 38.06 27.68 38.06 27.68 34.6 31.14 34.6 31.14 31.14 27.68 31.14 27.68 27.68 13.84 27.68 13.84 38.06 17.3 38.06 17.3 31.14 24.22 31.14 24.22 34.6 20.76 34.6 20.76 38.06 24.22 38.06 24.22 41.52 27.68 41.52 27.68 44.98 31.14 44.98 31.14 41.52 34.6 41.52 34.6 34.6 31.14 34.6"/><rect class="cls-2" x="93.43" y="27.68" width="3.46" height="2.08"/><rect class="cls-2" x="76.13" y="27.68" width="6.92" height="2.08"/><polygon class="cls-2" points="24.22 48.44 20.76 48.44 20.76 44.98 24.22 44.98 24.22 41.52 20.76 41.52 20.76 38.06 17.3 38.06 17.3 55.37 13.84 55.37 13.84 51.91 10.38 51.91 10.38 48.44 13.84 48.44 13.84 41.52 10.38 41.52 10.38 31.14 3.46 31.14 3.46 38.06 6.92 38.06 6.92 41.52 0 41.52 0 62.28 3.46 62.28 3.46 55.37 6.92 55.37 6.92 62.28 17.3 62.28 17.3 58.83 24.22 58.83 24.22 55.37 20.76 55.37 20.76 51.91 24.22 51.91 24.22 55.37 27.68 55.37 27.68 51.91 31.14 51.91 31.14 55.37 34.6 55.37 34.6 48.44 27.68 48.44 27.68 44.98 24.22 44.98 24.22 48.44"/><rect class="cls-2" x="34.6" y="31.14" width="6.92" height="3.46"/><path class="cls-2" d="M62.13,31.14h-3.3V34A10.94,10.94,0,0,1,62.13,31.14Z"/><polygon class="cls-2" points="44.98 38.06 48.45 38.06 48.45 34.6 41.52 34.6 41.52 41.52 44.98 41.52 44.98 38.06"/><rect class="cls-2" x="48.45" y="38.06" width="3.46" height="3.46"/><polygon class="cls-2" points="44.98 51.91 44.98 48.44 41.52 48.44 41.52 41.52 34.6 41.52 34.6 44.98 38.06 44.98 38.06 55.37 41.52 55.37 41.52 51.91 44.98 51.91"/><rect class="cls-2" x="55.36" y="41.52" width="1.11" height="3.46"/><rect class="cls-2" x="44.98" y="44.98" width="3.46" height="3.46"/><rect class="cls-2" x="51.9" y="44.98" width="3.46" height="3.46"/><rect class="cls-2" x="48.45" y="48.44" width="3.46" height="3.46"/><rect class="cls-2" x="44.98" y="51.91" width="3.46" height="3.46"/><path class="cls-2" d="M55.85,57.38V51.91h-4v3.45h3.46v3.47h.83A3.23,3.23,0,0,1,55.85,57.38Z"/><polygon class="cls-2" points="31.14 69.21 34.6 69.21 34.6 65.75 38.06 65.75 38.06 69.21 41.52 69.21 41.52 65.75 44.98 65.75 44.98 62.28 48.45 62.28 48.45 65.75 51.9 65.75 51.9 62.28 55.37 62.28 55.37 58.83 51.9 58.83 51.9 55.37 48.45 55.37 48.45 58.83 44.98 58.83 44.98 55.37 41.52 55.37 41.52 62.28 31.14 62.28 31.14 58.83 27.68 58.83 27.68 65.75 31.14 65.75 31.14 69.21"/><rect class="cls-2" x="20.76" y="62.29" width="3.46" height="3.46"/><polygon class="cls-2" points="55.37 69.21 56.47 69.21 56.47 62.28 55.37 62.28 55.37 65.75 51.9 65.75 51.9 72.67 55.37 72.67 55.37 69.21"/><polygon class="cls-2" points="24.22 65.75 24.22 69.21 13.84 69.21 13.84 65.75 10.38 65.75 10.38 72.67 27.68 72.67 27.68 65.75 24.22 65.75"/><rect class="cls-2" y="69.21" width="6.92" height="3.46"/><polygon class="cls-2" points="44.98 93.43 44.98 93.43 44.98 86.51 34.6 86.51 34.6 83.05 31.14 83.05 31.14 79.59 34.6 79.59 34.6 76.13 38.06 76.13 38.06 79.59 44.98 79.59 44.98 76.13 48.45 76.13 48.45 79.59 55.37 79.59 55.37 76.13 51.9 76.13 51.9 72.67 48.45 72.67 48.45 69.21 44.98 69.21 44.98 72.67 27.68 72.67 27.68 86.51 31.14 86.51 31.14 89.97 38.06 89.97 38.06 93.43 34.6 93.43 34.6 100.35 38.06 100.35 38.06 96.89 41.52 96.89 41.52 93.43 44.98 93.43"/><rect class="cls-2" x="55.36" y="72.67" width="1.11" height="3.46"/><polygon class="cls-2" points="56.47 93.43 56.47 83.05 48.45 83.05 48.45 93.43 44.98 93.43 44.98 93.43 44.98 96.89 48.45 96.89 48.45 100.35 51.9 100.35 51.9 96.89 55.37 96.89 55.37 93.43 56.47 93.43"/><path class="cls-2" d="M0,100.35H24.22V76.13H0Zm6.92-17.3H17.3V93.43H6.92Z"/><rect class="cls-2" x="55.36" y="96.89" width="1.11" height="3.46"/><rect class="cls-2" x="41.52" y="96.89" width="3.46" height="3.46"/><path class="cls-2" d="M62.28,31.14v-.08l-.15.08Z"/><path class="cls-3" d="M107.09,142.32H66.5a9.17,9.17,0,0,1-9.16-9.16V40.63a9.16,9.16,0,0,1,9.16-9.15h40.59a9.16,9.16,0,0,1,9.16,9.15v92.53A9.17,9.17,0,0,1,107.09,142.32ZM66.5,34.38a6.25,6.25,0,0,0-6.25,6.25v92.53a6.26,6.26,0,0,0,6.25,6.26h40.59a6.27,6.27,0,0,0,6.26-6.26V40.63a6.26,6.26,0,0,0-6.26-6.25Z"/><rect class="cls-4" x="62.37" y="34.38" width="53.1" height="105.04" rx="6.26"/><path class="cls-5" d="M77,33.61a5.87,5.87,0,0,0,5.88,5.87h12a5.87,5.87,0,0,0,5.87-5.87ZM85.44,38a1.29,1.29,0,1,1,1.28-1.28A1.28,1.28,0,0,1,85.44,38Zm8.66-.89H88a.17.17,0,0,1-.16-.17v-.25a.16.16,0,0,1,.16-.16H94.1a.16.16,0,0,1,.16.16v.25A.17.17,0,0,1,94.1,37.09Z"/><path class="cls-5" d="M94.14,133.62H83.69a2,2,0,0,1-2-2h0a2,2,0,0,1,2-2H94.14a2,2,0,0,1,2,2h0A2,2,0,0,1,94.14,133.62Z"/><path class="cls-5" d="M117.48,47h1a.77.77,0,0,1,.77.77V52a.77.77,0,0,1-.77.77h-1a0,0,0,0,1,0,0V47A0,0,0,0,1,117.48,47Z"/><path class="cls-5" d="M117.48,53.34h1a.77.77,0,0,1,.77.77v4.27a.77.77,0,0,1-.77.77h-1a0,0,0,0,1,0,0v-5.8A0,0,0,0,1,117.48,53.34Z"/><path class="cls-5" d="M59.49,48.11H60.6V58H59.49c-.34,0-.63-.48-.63-1.07V49.19C58.86,48.59,59.15,48.11,59.49,48.11Z"/><path class="cls-5" d="M109.21,142.32H68.62a9.16,9.16,0,0,1-9.15-9.16V40.63a9.15,9.15,0,0,1,9.15-9.15h40.59a9.16,9.16,0,0,1,9.16,9.15v92.53A9.17,9.17,0,0,1,109.21,142.32ZM68.62,34.38a6.25,6.25,0,0,0-6.25,6.25v92.53a6.26,6.26,0,0,0,6.25,6.26h40.59a6.27,6.27,0,0,0,6.26-6.26V40.63a6.26,6.26,0,0,0-6.26-6.25Z"/></g></g></svg>