<svg xmlns="http://www.w3.org/2000/svg" xmlns:xlink="http://www.w3.org/1999/xlink" viewBox="0 0 181.02 102.74"><defs><style>.cls-1{fill:url(#linear-gradient);}.cls-2{fill:url(#linear-gradient-2);}.cls-3{fill:url(#linear-gradient-3);}.cls-4{fill:#50ffff;}.cls-5{fill:#64d7ff;}.cls-6{fill:#113c6b;}.cls-7{fill:#fff;}</style><linearGradient id="linear-gradient" x1="1.32" y1="-566.25" x2="35.14" y2="-566.25" gradientTransform="matrix(0.91, -0.41, -0.41, -0.91, -80.12, -481.34)" gradientUnits="userSpaceOnUse"><stop offset="0" stop-color="#fff"/><stop offset="0.17" stop-color="#dbe2e9"/><stop offset="0.56" stop-color="#8097b0"/><stop offset="1" stop-color="#113c6b"/></linearGradient><linearGradient id="linear-gradient-2" x1="162.86" y1="-575.15" x2="188.71" y2="-575.15" gradientTransform="matrix(0.99, 0.14, 0.14, -0.99, 67.9, -545.86)" xlink:href="#linear-gradient"/><linearGradient id="linear-gradient-3" x1="-137.88" y1="-473.11" x2="-112.03" y2="-473.11" gradientTransform="matrix(0.61, -0.79, -0.79, -0.61, -142.69, -377.88)" xlink:href="#linear-gradient"/></defs><title>Asset 1</title><g id="Layer_2" data-name="Layer 2"><g id="Layer_1-2" data-name="Layer 1"><path class="cls-1" d="M181,17.69c-.45,4.62-.88,9-1.35,13.81-.91-1.21-1.69-2.14-2.35-3.16-.56-.86-.9-1-1.77-.19-5.27,4.83-11.33,8-18.62,8.24a20.92,20.92,0,0,1-14.76-5.56A32.46,32.46,0,0,0,150,33.58c9,1.65,16-1.47,21.57-8.5.55-.7.4-.94-.4-1.13-1.14-.26-2.26-.6-3.77-1Z"/><path class="cls-2" d="M174.47,47.08c-2.18,2.81-4.27,5.49-6.5,8.38-.1-1.15-.22-2.07-.24-3s-.18-1-1.06-.84c-5.38,1-10.59.55-15.41-2.26A16,16,0,0,1,144,39.75a24.67,24.67,0,0,0,3.95,5c5.12,4.71,11,5.58,17.41,3.29.64-.23.64-.45.2-.9-.63-.63-1.22-1.3-2-2.18Z"/><path class="cls-3" d="M158.69,0c1.35,3.28,2.64,6.43,4,9.81-1-.49-1.91-.84-2.72-1.29s-1-.34-1.26.51c-1.83,5.14-4.79,9.45-9.62,12.23a16,16,0,0,1-12,1.54,25.12,25.12,0,0,0,6.28-.95c6.64-2.1,10.29-6.74,11.51-13.47.13-.68-.07-.78-.67-.62-.86.23-1.74.4-2.91.67Z"/><path class="cls-4" d="M139.6,102.36H8.4A8.4,8.4,0,0,1,0,94V30.76a8.4,8.4,0,0,1,8.4-8.4H139.6a8.4,8.4,0,0,1,8.4,8.4V94A8.4,8.4,0,0,1,139.6,102.36Zm-126.82-4H135.22a7,7,0,0,0,7-7v-58a7,7,0,0,0-7-7H12.78a7,7,0,0,0-7,7v58A7,7,0,0,0,12.78,98.37Z"/><rect class="cls-5" x="3.54" y="24.4" width="146" height="76.69" rx="7.09"/><path class="cls-6" d="M142.1,102.74H10.9a8.4,8.4,0,0,1-8.4-8.4V31.14a8.4,8.4,0,0,1,8.4-8.4H142.1a8.4,8.4,0,0,1,8.4,8.4v63.2A8.4,8.4,0,0,1,142.1,102.74Zm-130.2-2H141.1a7.4,7.4,0,0,0,7.4-7.4V32.14a7.41,7.41,0,0,0-7.4-7.4H11.9a7.4,7.4,0,0,0-7.4,7.4v61.2A7.4,7.4,0,0,0,11.9,100.74Z"/><path class="cls-7" d="M58.3,91.19H28.13a3.75,3.75,0,0,1-3.49-2.37,15.91,15.91,0,0,0-8.68-9A4.85,4.85,0,0,1,13,75.43V49.33a4.8,4.8,0,0,1,3-4.49,14.8,14.8,0,0,0,8.6-8.23,3.75,3.75,0,0,1,3.46-2.32H58.3v2.59H28.11a1.18,1.18,0,0,0-1.08.73,17.48,17.48,0,0,1-10,9.63,2.25,2.25,0,0,0-1.38,2.09v26.1a2.27,2.27,0,0,0,1.38,2A18.62,18.62,0,0,1,27,87.85a1.17,1.17,0,0,0,1.09.75H58.3Z"/><path class="cls-7" d="M123,91.19H92.78V88.6H123a1.17,1.17,0,0,0,1.09-.75,18.62,18.62,0,0,1,10-10.38,2.27,2.27,0,0,0,1.38-2V49.33a2.25,2.25,0,0,0-1.38-2.09,17.45,17.45,0,0,1-10-9.63,1.19,1.19,0,0,0-1.09-.73H92.78V34.29H123a3.76,3.76,0,0,1,3.47,2.32,14.8,14.8,0,0,0,8.6,8.23,4.8,4.8,0,0,1,3,4.49v26.1a4.85,4.85,0,0,1-2.93,4.4,15.9,15.9,0,0,0-8.67,9A3.75,3.75,0,0,1,123,91.19Z"/><path class="cls-6" d="M60.3,91.19H30.13a3.75,3.75,0,0,1-3.49-2.37,15.91,15.91,0,0,0-8.68-9A4.85,4.85,0,0,1,15,75.43V49.33a4.8,4.8,0,0,1,3-4.49,14.8,14.8,0,0,0,8.6-8.23,3.75,3.75,0,0,1,3.46-2.32H60.3v2.59H30.11a1.18,1.18,0,0,0-1.08.73,17.48,17.48,0,0,1-10,9.63,2.25,2.25,0,0,0-1.38,2.09v26.1a2.27,2.27,0,0,0,1.38,2A18.62,18.62,0,0,1,29,87.85a1.17,1.17,0,0,0,1.09.75H60.3Z"/><path class="cls-6" d="M125,91.19H94.78V88.6H125a1.17,1.17,0,0,0,1.09-.75,18.62,18.62,0,0,1,10-10.38,2.27,2.27,0,0,0,1.38-2V49.33a2.25,2.25,0,0,0-1.38-2.09,17.45,17.45,0,0,1-10-9.63,1.19,1.19,0,0,0-1.09-.73H94.78V34.29H125a3.76,3.76,0,0,1,3.47,2.32,14.8,14.8,0,0,0,8.6,8.23,4.8,4.8,0,0,1,3,4.49v26.1a4.85,4.85,0,0,1-2.93,4.4,15.9,15.9,0,0,0-8.67,9A3.75,3.75,0,0,1,125,91.19Z"/><path class="cls-7" d="M59.93,59.1h7.84c.2,0,.2,0,.2-.2V51a3.41,3.41,0,0,0-.16-1.1,2.44,2.44,0,0,0-1.26-1.4,4,4,0,0,0-1.47-.44,3.35,3.35,0,0,0-1.44.14,1.07,1.07,0,0,0-.44.25c-.06,0-.07-.06-.09-.1a19,19,0,0,1-1.36-2.89l0-.09a1.79,1.79,0,0,1,.48-1.51,4.11,4.11,0,0,1,1.25-.8,8.51,8.51,0,0,1,2-.65,5,5,0,0,1,3.64.55,4.79,4.79,0,0,1,1.28,1.18,8.37,8.37,0,0,1,1.61,3.47,14,14,0,0,1,.33,3c0,2.75,0,5.49,0,8.24,0,.24,0,.2.2.2h2a.3.3,0,0,1,.24.09c1.28,1.31,2.56,2.61,3.83,3.92a.13.13,0,0,1,.07.09.31.31,0,0,1-.19,0h-6c-.2,0-.2,0-.2.21q0,5.66,0,11.29a3.7,3.7,0,0,0,1,2.62,3.1,3.1,0,0,0,1.42.85,6.15,6.15,0,0,0,2.45.22,6.33,6.33,0,0,0,2.4-.74A12,12,0,0,0,82,76a17.36,17.36,0,0,0,2.71-3,10.06,10.06,0,0,0,1.56-3.33,8.88,8.88,0,0,0,.23-1.46v-.1l-.49,0a6.67,6.67,0,0,1-2.81-.27A4.22,4.22,0,0,1,80.42,65a7,7,0,0,1-.34-1.69c0-.37,0-.73,0-1.09a5.39,5.39,0,0,1,1-3,4.17,4.17,0,0,1,2.58-1.67,7.78,7.78,0,0,1,2.59-.18A6.05,6.05,0,0,1,89.93,59a9.66,9.66,0,0,1,3,5.28,12.09,12.09,0,0,1,.24,2.81,13.88,13.88,0,0,1-1.35,5.59,17.89,17.89,0,0,1-2.12,3.44,22.7,22.7,0,0,1-3.38,3.55A14.94,14.94,0,0,1,81,82.52a14.25,14.25,0,0,1-2.4.51c-.57.07-1.13.11-1.69.13a7,7,0,0,1-3.32-.7,12.29,12.29,0,0,1-3-2,11.65,11.65,0,0,1-1.64-1.8A5.44,5.44,0,0,1,68,76.91a1,1,0,0,1,0-.34V63.44c0-.22,0-.22-.22-.22H64a.3.3,0,0,1-.25-.1l-3.79-4S60,59.14,59.93,59.1Z"/><path class="cls-6" d="M61.93,59.1h7.84c.2,0,.2,0,.2-.2V51a3.41,3.41,0,0,0-.16-1.1,2.44,2.44,0,0,0-1.26-1.4,4,4,0,0,0-1.47-.44,3.35,3.35,0,0,0-1.44.14,1.07,1.07,0,0,0-.44.25c-.06,0-.07-.06-.09-.1a19,19,0,0,1-1.36-2.89l0-.09a1.79,1.79,0,0,1,.48-1.51,4.11,4.11,0,0,1,1.25-.8,8.51,8.51,0,0,1,2-.65,5,5,0,0,1,3.64.55,4.79,4.79,0,0,1,1.28,1.18,8.37,8.37,0,0,1,1.61,3.47,14,14,0,0,1,.33,3c0,2.75,0,5.49,0,8.24,0,.24,0,.2.2.2h2a.3.3,0,0,1,.24.09c1.28,1.31,2.56,2.61,3.83,3.92a.13.13,0,0,1,.07.09.31.31,0,0,1-.19,0h-6c-.2,0-.2,0-.2.21q0,5.66,0,11.29a3.7,3.7,0,0,0,1,2.62,3.1,3.1,0,0,0,1.42.85,6.15,6.15,0,0,0,2.45.22,6.33,6.33,0,0,0,2.4-.74A12,12,0,0,0,84,76a17.36,17.36,0,0,0,2.71-3,10.06,10.06,0,0,0,1.56-3.33,8.88,8.88,0,0,0,.23-1.46v-.1l-.49,0a6.67,6.67,0,0,1-2.81-.27A4.22,4.22,0,0,1,82.42,65a7,7,0,0,1-.34-1.69c0-.37,0-.73,0-1.09a5.39,5.39,0,0,1,1-3,4.17,4.17,0,0,1,2.58-1.67,7.78,7.78,0,0,1,2.59-.18A6.05,6.05,0,0,1,91.93,59a9.66,9.66,0,0,1,3,5.28,12.09,12.09,0,0,1,.24,2.81,13.88,13.88,0,0,1-1.35,5.59,17.89,17.89,0,0,1-2.12,3.44,22.7,22.7,0,0,1-3.38,3.55A14.94,14.94,0,0,1,83,82.52a14.25,14.25,0,0,1-2.4.51c-.57.07-1.13.11-1.69.13a7,7,0,0,1-3.32-.7,12.29,12.29,0,0,1-3-2,11.65,11.65,0,0,1-1.64-1.8A5.44,5.44,0,0,1,70,76.91a1,1,0,0,1,0-.34V63.44c0-.22,0-.22-.22-.22H66a.3.3,0,0,1-.25-.1l-3.79-4S62,59.14,61.93,59.1Z"/></g></g></svg>